<svg width="1920" height="1080" viewBox="0 0 1920 1080" fill="none" xmlns="http://www.w3.org/2000/svg">
    <g filter="url(#filter0_f_1_4370)">
        <path d="M1542.48 947.179C1824.49 778.295 1915.57 411.707 1746.68 129.694C1577.8 -152.319 1211.64 -245.092 929.623 -76.2085C647.61 92.6755 556.537 459.264 725.421 741.277C894.305 1023.29 1260.47 1116.06 1542.48 947.179Z" fill="url(#paint0_radial_1_4370)"/>
    </g>
    <g style="mix-blend-mode:color-dodge" filter="url(#filter1_f_1_4370)">
        <path d="M935.836 1041.47C1229.32 1151.35 1556.73 1001.41 1666.61 707.921C1776.5 414.435 1628.07 86.3333 1334.58 -23.5485C1041.1 -133.43 713.687 16.5175 603.806 310.004C493.924 603.49 642.35 931.591 935.836 1041.47Z" fill="url(#paint1_radial_1_4370)"/>
    </g>
    <g style="mix-blend-mode:color-dodge" filter="url(#filter2_f_1_4370)">
        <path d="M675.669 933.485C911.603 1021.82 1174.81 901.276 1263.14 665.342C1351.47 429.409 1232.15 165.648 996.221 77.3139C760.288 -11.0201 497.084 109.523 408.75 345.456C320.416 581.39 439.736 845.151 675.669 933.485Z" fill="url(#paint2_radial_1_4370)"/>
    </g>
    <g opacity="0.9" filter="url(#filter3_f_1_4370)">
        <path d="M512.628 217.633C442.468 363.296 266.96 424.239 121.296 354.08C-24.367 283.92 -86.1242 108.696 -15.9645 -36.9672C54.1952 -182.63 229.704 -243.574 375.367 -173.414C521.03 -103.254 582.788 71.9698 512.628 217.633Z" fill="url(#paint3_radial_1_4370)"/>
    </g>
    <defs>
        <filter id="filter0_f_1_4370" x="95.4474" y="-705.727" width="2281.21" height="2282.43" filterUnits="userSpaceOnUse" color-interpolation-filters="sRGB">
            <feFlood flood-opacity="0" result="BackgroundImageFix"/>
            <feBlend mode="normal" in="SourceGraphic" in2="BackgroundImageFix" result="shape"/>
            <feGaussianBlur stdDeviation="272.576" result="effect1_foregroundBlur_1_4370"/>
        </filter>
        <filter id="filter1_f_1_4370" x="80.8315" y="-546.329" width="2108.76" height="2110.58" filterUnits="userSpaceOnUse" color-interpolation-filters="sRGB">
            <feFlood flood-opacity="0" result="BackgroundImageFix"/>
            <feBlend mode="normal" in="SourceGraphic" in2="BackgroundImageFix" result="shape"/>
            <feGaussianBlur stdDeviation="243.372" result="effect1_foregroundBlur_1_4370"/>
        </filter>
        <filter id="filter2_f_1_4370" x="-107.119" y="-438.4" width="1886.13" height="1887.6" filterUnits="userSpaceOnUse" color-interpolation-filters="sRGB">
            <feFlood flood-opacity="0" result="BackgroundImageFix"/>
            <feBlend mode="normal" in="SourceGraphic" in2="BackgroundImageFix" result="shape"/>
            <feGaussianBlur stdDeviation="243.372" result="effect1_foregroundBlur_1_4370"/>
        </filter>
        <filter id="filter3_f_1_4370" x="-1244.43" y="-1402.03" width="2985.52" height="2984.74" filterUnits="userSpaceOnUse" color-interpolation-filters="sRGB">
            <feFlood flood-opacity="0" result="BackgroundImageFix"/>
            <feBlend mode="normal" in="SourceGraphic" in2="BackgroundImageFix" result="shape"/>
            <feGaussianBlur stdDeviation="599.751" result="effect1_foregroundBlur_1_4370"/>
        </filter>
        <radialGradient id="paint0_radial_1_4370" cx="0" cy="0" r="1" gradientUnits="userSpaceOnUse" gradientTransform="translate(1169.54 544.923) rotate(-145.788) scale(621.919 623.214)">
            <stop stop-color="#00E29A"/>
            <stop offset="1" stop-color="#00E29A" stop-opacity="0"/>
        </radialGradient>
        <radialGradient id="paint1_radial_1_4370" cx="0" cy="0" r="1" gradientUnits="userSpaceOnUse" gradientTransform="translate(1436.56 427.506) rotate(153.257) scale(527.577 528.677)">
            <stop stop-color="#7C75FF"/>
            <stop offset="1" stop-color="#484EB7" stop-opacity="0"/>
            <stop offset="1" stop-color="#9FA7FF" stop-opacity="0"/>
        </radialGradient>
        <radialGradient id="paint2_radial_1_4370" cx="0" cy="0" r="1" gradientUnits="userSpaceOnUse" gradientTransform="translate(712.527 652.638) rotate(-134.681) scale(432.02 432.92)">
            <stop stop-color="#FF8B8B"/>
            <stop offset="1" stop-color="#FF8B8B" stop-opacity="0.7"/>
        </radialGradient>
        <radialGradient id="paint3_radial_1_4370" cx="0" cy="0" r="1" gradientUnits="userSpaceOnUse" gradientTransform="translate(362.355 151.42) rotate(-64.8812) scale(1274.55 1277.2)">
            <stop stop-color="#5AE9FD"/>
            <stop offset="1" stop-color="#5AE9FD" stop-opacity="0"/>
        </radialGradient>
    </defs>
</svg>
