<svg width="24" height="24" viewBox="0 0 24 24" fill="none" xmlns="http://www.w3.org/2000/svg">
    <path fill-rule="evenodd" clip-rule="evenodd" d="M20.7069 4.7071C21.0974 4.31657 21.0974 3.68341 20.7069 3.29289C20.3163 2.90236 19.6832 2.90236 19.2927 3.29289L11.9998 10.5858L4.70686 3.29289C4.31634 2.90237 3.68317 2.90237 3.29265 3.29289C2.90213 3.68342 2.90213 4.31658 3.29265 4.7071L10.5855 12L3.29265 19.2929C2.90212 19.6834 2.90212 20.3166 3.29265 20.7071C3.68317 21.0976 4.31634 21.0976 4.70686 20.7071L11.9998 13.4142L19.2927 20.7071C19.6832 21.0976 20.3163 21.0976 20.7069 20.7071C21.0974 20.3166 21.0974 19.6834 20.7069 19.2929L13.414 12L20.7069 4.7071Z" fill="white"/>
</svg>
